<svg width="21" height="21" viewBox="0 0 21 21" fill="none" xmlns="http://www.w3.org/2000/svg">
<g clip-path="url(#clip0_1_465)">
<path fill-rule="evenodd" clip-rule="evenodd" d="M17.5995 17.7747C18.1895 16.8747 18.4095 16.4147 18.8595 15.4047C15.5394 14.1446 15.0094 9.41453 18.2895 7.60449C17.2895 6.34446 15.8794 5.61444 14.5494 5.61444C13.5894 5.61444 12.9294 5.86445 12.3394 6.09445C11.8394 6.28446 11.3893 6.45446 10.8293 6.45446C10.2293 6.45446 9.6993 6.26446 9.13929 6.06445C8.53928 5.84445 7.89929 5.61444 7.09927 5.61444C5.60924 5.61444 4.0192 6.52446 3.00918 8.0845C1.58915 10.2845 1.83915 14.4046 4.12921 17.9247C4.94923 19.1847 6.04926 20.5948 7.47929 20.6148C8.07931 20.6248 8.46931 20.4448 8.89929 20.2548C9.3893 20.0348 9.91931 19.7948 10.8493 19.7948C11.7794 19.7848 12.2994 20.0348 12.7894 20.2548C13.2094 20.4448 13.5894 20.6248 14.1794 20.6148C15.6194 20.5948 16.7795 19.0347 17.5995 17.7747Z" fill="#292D32"/>
<path opacity="0.4" fill-rule="evenodd" clip-rule="evenodd" d="M14.3406 0.615112C14.5006 1.71514 14.0506 2.80516 13.4606 3.56518C12.8306 4.3852 11.7306 5.02521 10.6706 4.98521C10.4806 3.92519 10.9706 2.83516 11.5706 2.10515C12.2406 1.30513 13.3706 0.685114 14.3406 0.615112Z" fill="#292D32"/>
</g>
<defs>
<clipPath id="clip0_1_465">
<rect width="20" height="20" fill="white" transform="translate(0.5 0.615112)"/>
</clipPath>
</defs>
</svg>
