<svg width="20" height="20" viewBox="0 0 20 20" fill="none" xmlns="http://www.w3.org/2000/svg">
<rect width="20" height="20" rx="10" fill="#D93B2B" fill-opacity="0.1"/>
<path fill-rule="evenodd" clip-rule="evenodd" d="M6.03646 6.04526C6.16656 5.91507 6.34299 5.84193 6.52694 5.84193C6.7109 5.84193 6.88732 5.91507 7.01742 6.04526L9.99567 9.02651L12.9739 6.04526C13.0379 5.97893 13.1145 5.92603 13.1991 5.88963C13.2838 5.85324 13.3748 5.83408 13.4669 5.83328C13.559 5.83248 13.6504 5.85005 13.7356 5.88496C13.8209 5.91988 13.8983 5.97145 13.9635 6.03665C14.0286 6.10185 14.0801 6.17939 14.115 6.26473C14.1499 6.35008 14.1675 6.44152 14.1667 6.53373C14.1659 6.62594 14.1467 6.71706 14.1104 6.80179C14.074 6.88651 14.0211 6.96314 13.9549 7.0272L10.9766 10.0085L13.9549 12.9897C14.0813 13.1207 14.1512 13.2961 14.1496 13.4782C14.148 13.6603 14.0751 13.8344 13.9464 13.9632C13.8178 14.0919 13.6438 14.165 13.4619 14.1666C13.28 14.1681 13.1048 14.0981 12.9739 13.9716L9.99567 10.9904L7.01742 13.9716C6.88658 14.0981 6.71134 14.1681 6.52944 14.1666C6.34754 14.165 6.17354 14.0919 6.04491 13.9632C5.91629 13.8344 5.84333 13.6603 5.84175 13.4782C5.84017 13.2961 5.91009 13.1207 6.03646 12.9897L9.01472 10.0085L6.03646 7.0272C5.90641 6.89697 5.83334 6.72037 5.83334 6.53623C5.83334 6.35209 5.90641 6.17549 6.03646 6.04526Z" fill="#D93B2B"/>
</svg>
