<svg width="16" height="17" viewBox="0 0 16 17" fill="none" xmlns="http://www.w3.org/2000/svg">
<path d="M2.66659 13.1668H13.3333V9.8335H14.6666V13.8335C14.6666 14.0103 14.5963 14.1799 14.4713 14.3049C14.3463 14.4299 14.1767 14.5002 13.9999 14.5002H1.99992C1.82311 14.5002 1.65354 14.4299 1.52851 14.3049C1.40349 14.1799 1.33325 14.0103 1.33325 13.8335V9.8335H2.66659V13.1668ZM7.99992 7.16683H5.99992C5.36863 7.16639 4.74622 7.31557 4.18373 7.60215C3.62123 7.88873 3.13466 8.30454 2.76392 8.8155C3.00057 7.60048 3.65234 6.50555 4.60757 5.71828C5.56281 4.931 6.76207 4.50038 7.99992 4.50016V1.8335L13.3333 5.8335L7.99992 9.8335V7.16683Z" fill="#182252"/>
</svg>
