<svg width="17" height="16" viewBox="0 0 17 16" fill="none" xmlns="http://www.w3.org/2000/svg">
<path d="M11.5352 2.86883C11.6828 2.71602 11.8594 2.59412 12.0546 2.51027C12.2498 2.42642 12.4597 2.38228 12.6722 2.38043C12.8846 2.37859 13.0953 2.41907 13.2919 2.49952C13.4886 2.57997 13.6672 2.69877 13.8174 2.849C13.9677 2.99923 14.0865 3.17787 14.1669 3.37451C14.2474 3.57114 14.2879 3.78183 14.286 3.99427C14.2842 4.20672 14.24 4.41667 14.1562 4.61188C14.0723 4.80709 13.9504 4.98364 13.7976 5.13123L13.1632 5.76563L10.9008 3.50323L11.5352 2.86883ZM9.76961 4.63443L3.06641 11.3376V13.6H5.32881L12.0328 6.89683L9.76881 4.63443H9.76961Z" fill="#1890FF"/>
</svg>
