<svg width="14" height="13" viewBox="0 0 14 13" fill="none" xmlns="http://www.w3.org/2000/svg">
<path d="M12.9999 1.83333C13.1767 1.83333 13.3463 1.90357 13.4713 2.0286C13.5963 2.15362 13.6666 2.32319 13.6666 2.5V11.8333C13.6666 12.0101 13.5963 12.1797 13.4713 12.3047C13.3463 12.4298 13.1767 12.5 12.9999 12.5H0.999919C0.823108 12.5 0.653538 12.4298 0.528514 12.3047C0.40349 12.1797 0.333252 12.0101 0.333252 11.8333V1.16667C0.333252 0.989856 0.40349 0.820286 0.528514 0.695262C0.653538 0.570238 0.823108 0.5 0.999919 0.5H5.94258L7.27592 1.83333H9.66659V3.16667H10.9999V1.83333H12.9999ZM10.9999 7.16667H9.66659V8.5H8.33325V10.5H10.9999V7.16667ZM9.66659 5.83333H8.33325V7.16667H9.66659V5.83333ZM10.9999 4.5H9.66659V5.83333H10.9999V4.5ZM9.66659 3.16667H8.33325V4.5H9.66659V3.16667Z" fill="#1890FF"/>
</svg>
