<svg width="21" height="21" viewBox="0 0 21 21" fill="none" xmlns="http://www.w3.org/2000/svg">
<path fill-rule="evenodd" clip-rule="evenodd" d="M11.5159 20.6151H1.9371C1.32728 20.6151 0.833252 20.1208 0.833252 19.5112V1.71895C0.833252 1.10922 1.32736 0.615112 1.9371 0.615112H19.7295C20.3391 0.615112 20.8333 1.10922 20.8333 1.71895V19.5112C20.8333 20.1209 20.339 20.6151 19.7295 20.6151H14.633V12.87H17.2326L17.6219 9.85161H14.633V7.92455C14.633 7.05065 14.8756 6.45511 16.1288 6.45511L17.7271 6.45442V3.75474C17.4507 3.71795 16.5019 3.63577 15.3981 3.63577C13.0936 3.63577 11.5159 5.04242 11.5159 7.62562V9.85161H8.90955V12.87H11.5159V20.6151Z" fill="#4460A0"/>
</svg>
