<svg width="19" height="19" viewBox="0 0 19 19" fill="none" xmlns="http://www.w3.org/2000/svg">
<path d="M6.31166 0.825204C4.04666 1.6002 2.11666 3.2952 1.04166 5.4402C0.666657 6.1802 0.396657 6.9652 0.231657 7.7802C-0.178343 9.80021 0.106657 11.9552 1.03666 13.7952C1.64166 14.9952 2.51166 16.0652 3.56166 16.9002C4.55666 17.6902 5.71166 18.2802 6.94166 18.6052C8.49166 19.0202 10.1417 19.0102 11.7017 18.6552C13.1117 18.3302 14.4467 17.6552 15.5117 16.6752C16.6367 15.6402 17.4417 14.2802 17.8667 12.8152C18.3317 11.2202 18.3917 9.5152 18.1017 7.8752C15.1867 7.8752 12.2667 7.8752 9.35166 7.8752C9.35166 9.0852 9.35166 10.2952 9.35166 11.5052C11.0417 11.5052 12.7317 11.5052 14.4217 11.5052C14.2267 12.6652 13.5367 13.7252 12.5617 14.3802C11.9467 14.7952 11.2417 15.0602 10.5117 15.1902C9.78166 15.3152 9.02166 15.3302 8.29166 15.1852C7.54666 15.0352 6.84166 14.7252 6.22166 14.2902C5.23166 13.5952 4.47666 12.5802 4.09166 11.4352C3.69666 10.2702 3.69166 8.9752 4.09166 7.8152C4.37166 6.9952 4.83166 6.2402 5.44166 5.6202C6.19166 4.8502 7.16666 4.3002 8.22166 4.0752C9.12166 3.8852 10.0717 3.9202 10.9517 4.1852C11.7017 4.4102 12.3917 4.8252 12.9567 5.3652C13.5267 4.7952 14.0967 4.2252 14.6667 3.6552C14.9667 3.3502 15.2817 3.0552 15.5717 2.7402C14.7067 1.9402 13.6867 1.2952 12.5767 0.885204C10.5767 0.145204 8.32666 0.130204 6.31166 0.825204Z" fill="#F0F0F0"/>
<path d="M6.31163 0.825111C8.32163 0.130111 10.5766 0.145111 12.5766 0.880111C13.6866 1.29011 14.7016 1.93011 15.5716 2.73511C15.2816 3.05011 14.9666 3.34511 14.6666 3.65011C14.0966 4.22011 13.5266 4.79011 12.9566 5.36011C12.3916 4.82011 11.7016 4.41011 10.9516 4.18011C10.0716 3.91511 9.12163 3.87511 8.22163 4.07011C7.17163 4.29511 6.19663 4.84511 5.44163 5.61511C4.83163 6.23011 4.37163 6.99011 4.09163 7.81011C3.07663 7.02011 2.06163 6.23511 1.04163 5.44511C2.11663 3.29511 4.04663 1.60011 6.31163 0.825111Z" fill="#EA4335"/>
<path d="M0.236825 7.77524C0.401825 6.96524 0.671825 6.17524 1.04682 5.43524C2.06182 6.22524 3.07682 7.01024 4.09682 7.80024C3.69682 8.96524 3.69682 10.2602 4.09682 11.4202C3.08182 12.2102 2.06682 13.0002 1.05182 13.7852C0.111825 11.9502 -0.173175 9.79524 0.236825 7.77524Z" fill="#FBBC05"/>
<path d="M9.35174 7.87006C12.2667 7.87006 15.1867 7.87006 18.1018 7.87006C18.3918 9.50506 18.3268 11.2101 17.8668 12.8101C17.4418 14.2751 16.6368 15.6351 15.5117 16.6701C14.5267 15.9051 13.5417 15.1401 12.5567 14.3751C13.5317 13.7201 14.2217 12.6601 14.4167 11.5001C12.7267 11.5001 11.0367 11.5001 9.34674 11.5001C9.35174 10.2901 9.35174 9.08006 9.35174 7.87006Z" fill="#4285F4"/>
<path d="M1.04163 13.7901C2.05663 13.0051 3.07163 12.2151 4.08663 11.425C4.47663 12.5701 5.22663 13.5851 6.21663 14.2801C6.83663 14.7151 7.54663 15.0251 8.28663 15.1751C9.01663 15.3251 9.77163 15.3051 10.5066 15.1801C11.2366 15.0501 11.9416 14.7851 12.5566 14.3701C13.5416 15.1351 14.5266 15.9001 15.5116 16.6651C14.4466 17.6501 13.1116 18.3201 11.7016 18.6451C10.1416 19.0001 8.49163 19.0101 6.94163 18.5951C5.71163 18.2701 4.55663 17.6851 3.56163 16.8901C2.51663 16.0601 1.64663 14.9901 1.04163 13.7901Z" fill="#34A853"/>
</svg>
