<svg width="20" height="20" viewBox="0 0 20 20" fill="none" xmlns="http://www.w3.org/2000/svg">
<path fill-rule="evenodd" clip-rule="evenodd" d="M5 1C2.79086 1 1 2.79086 1 5V15C1 17.2091 2.79086 19 5 19H15C17.2091 19 19 17.2091 19 15V5C19 2.79086 17.2091 1 15 1H5ZM5.25817 5.21381C5.11995 5.07691 4.93249 5 4.73702 5C4.54155 5 4.35409 5.07691 4.21587 5.21381C4.07765 5.35071 4 5.53639 4 5.73V14.49C4 14.6836 4.07765 14.8693 4.21587 15.0062C4.35409 15.1431 4.54155 15.22 4.73702 15.22C4.93249 15.22 5.11995 15.1431 5.25817 15.0062C5.39639 14.8693 5.47404 14.6836 5.47404 14.49V5.73C5.47404 5.53639 5.39639 5.35071 5.25817 5.21381ZM10.633 7.92C10.633 7.72643 10.5554 7.54079 10.4172 7.40389C10.279 7.26704 10.0916 7.19016 9.89615 7.19016C9.70072 7.19016 9.51329 7.26704 9.37508 7.40389L7.16402 9.59389C7.02585 9.73079 6.94823 9.91643 6.94823 10.11C6.94823 10.3036 7.02585 10.4892 7.16402 10.6261L9.37508 12.8161C9.51408 12.9491 9.70026 13.0227 9.8935 13.021C10.0867 13.0193 10.2716 12.9426 10.4082 12.8072C10.5449 12.6719 10.6224 12.4888 10.6241 12.2974C10.6258 12.106 10.5515 11.9216 10.4172 11.7839L9.46426 10.84H15.0553C15.2508 10.84 15.4382 10.7631 15.5764 10.6262C15.7147 10.4893 15.7923 10.3036 15.7923 10.11C15.7923 9.91639 15.7147 9.73071 15.5764 9.59381C15.4382 9.45691 15.2508 9.38 15.0553 9.38H9.46426L10.4172 8.43611C10.5554 8.29921 10.633 8.11357 10.633 7.92Z" fill="white"/>
</svg>
