<svg width="12" height="17" viewBox="0 0 12 17" fill="none" xmlns="http://www.w3.org/2000/svg">
<path d="M7.293 0.5H2C1.46957 0.5 0.960859 0.710714 0.585786 1.08579C0.210714 1.46086 0 1.96957 0 2.5V14.5C0 15.0304 0.210714 15.5391 0.585786 15.9142C0.960859 16.2893 1.46957 16.5 2 16.5H10C10.5304 16.5 11.0391 16.2893 11.4142 15.9142C11.7893 15.5391 12 15.0304 12 14.5V5.207C11.9999 4.9418 11.8945 4.68749 11.707 4.5L8 0.793C7.81251 0.605451 7.5582 0.500057 7.293 0.5V0.5ZM7.5 4V2L10.5 5H8.5C8.23478 5 7.98043 4.89464 7.79289 4.70711C7.60536 4.51957 7.5 4.26522 7.5 4ZM8 7.5V8.576C8.54 8.742 9 9.173 9 9.8V12.2C9 13.016 8.219 13.5 7.5 13.5H4.5C3.781 13.5 3 13.016 3 12.2V9.8C3 9.173 3.46 8.742 4 8.576V7.5C4 6.96957 4.21071 6.46086 4.58579 6.08579C4.96086 5.71071 5.46957 5.5 6 5.5C6.53043 5.5 7.03914 5.71071 7.41421 6.08579C7.78929 6.46086 8 6.96957 8 7.5Z" fill="#1890FF"/>
</svg>
