<svg width="15" height="15" viewBox="0 0 15 15" fill="none" xmlns="http://www.w3.org/2000/svg">
<path d="M10.586 1.08592C10.7705 0.894898 10.9912 0.742533 11.2352 0.637715C11.4792 0.532897 11.7416 0.477725 12.0072 0.475417C12.2728 0.47311 12.5361 0.523713 12.7819 0.624275C13.0277 0.724837 13.251 0.873343 13.4388 1.06113C13.6266 1.24891 13.7751 1.47222 13.8756 1.71801C13.9762 1.9638 14.0268 2.22716 14.0245 2.49272C14.0222 2.75828 13.967 3.02072 13.8622 3.26473C13.7574 3.50874 13.605 3.72942 13.414 3.91392L12.621 4.70692L9.793 1.87892L10.586 1.08592ZM8.379 3.29292L0 11.6719V14.4999H2.828L11.208 6.12092L8.378 3.29292H8.379Z" fill="white"/>
</svg>
