<svg width="15" height="16" viewBox="0 0 15 16" fill="none" xmlns="http://www.w3.org/2000/svg">
<path fill-rule="evenodd" clip-rule="evenodd" d="M0 2.13333C0 1.56754 0.224761 1.02492 0.624839 0.624839C1.02492 0.224761 1.56754 0 2.13333 0H12.8C13.3658 0 13.9084 0.224761 14.3085 0.624839C14.7086 1.02492 14.9333 1.56754 14.9333 2.13333V10.6667C14.9333 11.2325 14.7086 11.7751 14.3085 12.1752C13.9084 12.5752 13.3658 12.8 12.8 12.8H10.432L10.5632 13.3216L11.4208 14.1792C11.5699 14.3284 11.6715 14.5184 11.7126 14.7253C11.7538 14.9322 11.7326 15.1466 11.6519 15.3415C11.5712 15.5364 11.4345 15.703 11.2592 15.8202C11.0838 15.9374 10.8776 16 10.6667 16H4.26667C4.05573 16 3.84955 15.9374 3.67418 15.8202C3.49881 15.703 3.36213 15.5364 3.28141 15.3415C3.2007 15.1466 3.17957 14.9322 3.22071 14.7253C3.26185 14.5184 3.3634 14.3284 3.51253 14.1792L4.37013 13.3216L4.50133 12.8H2.13333C1.56754 12.8 1.02492 12.5752 0.624839 12.1752C0.224761 11.7751 0 11.2325 0 10.6667V2.13333ZM6.15573 9.6H2.13333V2.13333H12.8V9.6H6.15573Z" fill="white"/>
</svg>
