<svg width="16" height="18" viewBox="0 0 16 18" fill="none" xmlns="http://www.w3.org/2000/svg">
<path fill-rule="evenodd" clip-rule="evenodd" d="M0.166 3.99897C3.06114 3.96297 5.84481 2.87743 8 0.94397C10.155 2.87779 12.9387 3.9637 15.834 3.99997C15.944 4.64997 16 5.31997 16 6.00097C16 11.226 12.66 15.671 8 17.318C3.34 15.67 0 11.225 0 5.99997C0 5.31797 0.0569999 4.64997 0.166 3.99897ZM11.707 7.70697C11.8892 7.51837 11.99 7.26577 11.9877 7.00357C11.9854 6.74137 11.8802 6.49056 11.6948 6.30515C11.5094 6.11974 11.2586 6.01457 10.9964 6.0123C10.7342 6.01002 10.4816 6.11081 10.293 6.29297L7 9.58597L5.707 8.29297C5.5184 8.11081 5.2658 8.01002 5.0036 8.0123C4.7414 8.01457 4.49059 8.11974 4.30518 8.30515C4.11977 8.49056 4.0146 8.74137 4.01233 9.00357C4.01005 9.26577 4.11084 9.51837 4.293 9.70697L6.293 11.707C6.48053 11.8944 6.73484 11.9998 7 11.9998C7.26516 11.9998 7.51947 11.8944 7.707 11.707L11.707 7.70697Z" fill="white"/>
</svg>
