<svg width="12" height="13" viewBox="0 0 12 13" fill="none" xmlns="http://www.w3.org/2000/svg">
<path d="M8.8687 1.36883C9.0163 1.21602 9.19285 1.09412 9.38806 1.01027C9.58326 0.926415 9.79321 0.882278 10.0057 0.880432C10.2181 0.878585 10.4288 0.919068 10.6254 0.999518C10.8221 1.07997 11.0007 1.19877 11.1509 1.349C11.3012 1.49923 11.42 1.67787 11.5004 1.87451C11.5809 2.07114 11.6214 2.28183 11.6195 2.49427C11.6177 2.70672 11.5735 2.91667 11.4897 3.11188C11.4058 3.30709 11.2839 3.48364 11.1311 3.63123L10.4967 4.26563L8.2343 2.00323L8.8687 1.36883ZM7.1031 3.13443L0.399902 9.83763V12.1H2.6623L9.3663 5.39683L7.1023 3.13443H7.1031Z" fill="#1890FF"/>
</svg>
