<svg width="32" height="32" viewBox="0 0 32 32" fill="none" xmlns="http://www.w3.org/2000/svg">
<g clip-path="url(#clip0_559:6968)">
<path d="M1 19.7998C1.26522 19.7998 1.51957 19.9052 1.70711 20.0927C1.89464 20.2802 2 20.5346 2 20.7998V25.7998C2 26.3302 2.21071 26.8389 2.58579 27.214C2.96086 27.5891 3.46957 27.7998 4 27.7998H28C28.5304 27.7998 29.0391 27.5891 29.4142 27.214C29.7893 26.8389 30 26.3302 30 25.7998V20.7998C30 20.5346 30.1054 20.2802 30.2929 20.0927C30.4804 19.9052 30.7348 19.7998 31 19.7998C31.2652 19.7998 31.5196 19.9052 31.7071 20.0927C31.8946 20.2802 32 20.5346 32 20.7998V25.7998C32 26.8607 31.5786 27.8781 30.8284 28.6282C30.0783 29.3784 29.0609 29.7998 28 29.7998H4C2.93913 29.7998 1.92172 29.3784 1.17157 28.6282C0.421427 27.8781 0 26.8607 0 25.7998V20.7998C0 20.5346 0.105357 20.2802 0.292893 20.0927C0.48043 19.9052 0.734784 19.7998 1 19.7998Z" fill="#182252" stroke="#182252" stroke-width="0.5"/>
<path d="M14.96 2.29183C15.0529 2.19871 15.1633 2.12482 15.2847 2.07441C15.4062 2.024 15.5365 1.99805 15.668 1.99805C15.7995 1.99805 15.9298 2.024 16.0513 2.07441C16.1728 2.12482 16.2831 2.19871 16.376 2.29183L22.376 8.29183C22.5638 8.47961 22.6693 8.73428 22.6693 8.99983C22.6693 9.26539 22.5638 9.52006 22.376 9.70783C22.1882 9.89561 21.9336 10.0011 21.668 10.0011C21.4025 10.0011 21.1478 9.89561 20.96 9.70783L16.668 5.41383V22.9998C16.668 23.2651 16.5627 23.5194 16.3751 23.7069C16.1876 23.8945 15.9332 23.9998 15.668 23.9998C15.4028 23.9998 15.1484 23.8945 14.9609 23.7069C14.7734 23.5194 14.668 23.2651 14.668 22.9998V5.41383L10.376 9.70783C10.283 9.80081 10.1727 9.87456 10.0512 9.92488C9.9297 9.9752 9.7995 10.0011 9.66801 10.0011C9.53652 10.0011 9.40632 9.9752 9.28484 9.92488C9.16337 9.87456 9.05299 9.80081 8.96001 9.70783C8.86704 9.61486 8.79328 9.50448 8.74296 9.383C8.69265 9.26152 8.66675 9.13132 8.66675 8.99983C8.66675 8.86835 8.69265 8.73815 8.74296 8.61667C8.79328 8.49519 8.86704 8.38481 8.96001 8.29183L14.96 2.29183Z" fill="#182252" stroke="#182252" stroke-width="0.5"/>
</g>
<defs>
<clipPath id="clip0_559:6968">
<rect width="32" height="32" fill="white"/>
</clipPath>
</defs>
</svg>
