<svg width="40" height="40" viewBox="0 0 40 40" fill="none" xmlns="http://www.w3.org/2000/svg">
<path fill-rule="evenodd" clip-rule="evenodd" d="M39.2001 20C39.2001 25.0921 37.1772 29.9757 33.5765 33.5764C29.9758 37.1771 25.0922 39.2 20 39.2C14.9079 39.2 10.0243 37.1771 6.4236 33.5764C2.8229 29.9757 0.800049 25.0921 0.800049 20C0.800049 14.9078 2.8229 10.0242 6.4236 6.42354C10.0243 2.82284 14.9079 0.799988 20 0.799988C25.0922 0.799988 29.9758 2.82284 33.5765 6.42354C37.1772 10.0242 39.2001 14.9078 39.2001 20ZM22.4 29.6C22.4 30.2365 22.1472 30.847 21.6971 31.297C21.247 31.7471 20.6366 32 20 32C19.3635 32 18.7531 31.7471 18.303 31.297C17.8529 30.847 17.6 30.2365 17.6 29.6C17.6 28.9635 17.8529 28.353 18.303 27.9029C18.7531 27.4528 19.3635 27.2 20 27.2C20.6366 27.2 21.247 27.4528 21.6971 27.9029C22.1472 28.353 22.4 28.9635 22.4 29.6ZM20 7.99999C19.3635 7.99999 18.7531 8.25284 18.303 8.70293C17.8529 9.15302 17.6 9.76347 17.6 10.4V20C17.6 20.6365 17.8529 21.247 18.303 21.697C18.7531 22.1471 19.3635 22.4 20 22.4C20.6366 22.4 21.247 22.1471 21.6971 21.697C22.1472 21.247 22.4 20.6365 22.4 20V10.4C22.4 9.76347 22.1472 9.15302 21.6971 8.70293C21.247 8.25284 20.6366 7.99999 20 7.99999Z" fill="#F2B12E"/>
</svg>
