<svg width="485" height="118" viewBox="0 0 485 118" fill="none" xmlns="http://www.w3.org/2000/svg">
<path d="M273.994 65.4355C305.86 25.1377 461.686 87.894 482.83 28.172" stroke="white" stroke-width="4" stroke-linecap="round"/>
<path d="M21.811 46.5451C17.9461 46.5451 14.6263 45.8018 11.8515 44.3153C9.07665 42.8288 6.946 40.7312 5.4595 38.0224C4.00603 35.3137 3.2793 32.1425 3.2793 28.5088C3.2793 24.8752 4.00603 21.7205 5.4595 19.0448C6.946 16.3361 9.07665 14.2384 11.8515 12.752C14.6263 11.2654 17.9461 10.5222 21.811 10.5222C24.1233 10.5222 26.3531 10.8856 28.5002 11.6123C30.6474 12.306 32.3817 13.2309 33.703 14.3871L30.9778 21.5718C29.5243 20.5148 28.0708 19.7385 26.6174 19.243C25.1639 18.7145 23.6774 18.4502 22.1579 18.4502C19.0858 18.4502 16.7734 19.3256 15.2208 21.0763C13.6683 22.7941 12.892 25.2716 12.892 28.5088C12.892 31.7791 13.6683 34.2897 15.2208 36.0404C16.7734 37.7582 19.0858 38.617 22.1579 38.617C23.6774 38.617 25.1639 38.3693 26.6174 37.8738C28.0708 37.3453 29.5243 36.5525 30.9778 35.4954L33.703 42.6801C32.3817 43.8363 30.6474 44.7778 28.5002 45.5045C26.3531 46.1982 24.1233 46.5451 21.811 46.5451ZM48.1898 46.5451C45.4811 46.5451 43.1192 46.033 41.1041 45.009C39.0891 43.985 37.52 42.515 36.3969 40.599C35.2738 38.6831 34.7122 36.4203 34.7122 33.8107C34.7122 31.168 35.2738 28.9052 36.3969 27.0223C37.52 25.1064 39.0891 23.6364 41.1041 22.6124C43.1192 21.5884 45.4811 21.0763 48.1898 21.0763C50.8985 21.0763 53.2604 21.5884 55.2754 22.6124C57.2905 23.6364 58.843 25.1064 59.9331 27.0223C61.0563 28.9052 61.6178 31.168 61.6178 33.8107C61.6178 36.4203 61.0563 38.6831 59.9331 40.599C58.843 42.515 57.2905 43.985 55.2754 45.009C53.2604 46.033 50.8985 46.5451 48.1898 46.5451ZM48.1898 40.054C49.5111 40.054 50.6012 39.5585 51.4601 38.5675C52.319 37.5765 52.7484 35.9909 52.7484 33.8107C52.7484 31.5975 52.319 30.0119 51.4601 29.0539C50.6012 28.0629 49.5111 27.5674 48.1898 27.5674C46.8354 27.5674 45.7288 28.0629 44.8699 29.0539C44.0111 30.0119 43.5816 31.5975 43.5816 33.8107C43.5816 35.9909 44.0111 37.5765 44.8699 38.5675C45.7288 39.5585 46.8354 40.054 48.1898 40.054ZM65.6593 46V21.6214H74.2314V24.9412C75.0903 23.686 76.1969 22.728 77.5513 22.0673C78.9056 21.4067 80.4252 21.0763 82.1099 21.0763C85.0168 21.0763 87.164 21.9352 88.5514 23.6529C89.9718 25.3707 90.682 28.0133 90.682 31.5809V46H81.8621V31.9278C81.8621 30.4413 81.5978 29.3842 81.0693 28.7566C80.5738 28.129 79.8306 27.8151 78.8396 27.8151C77.5182 27.8151 76.4612 28.2446 75.6684 29.1034C74.8756 29.9293 74.4792 31.0524 74.4792 32.4729V46H65.6593ZM102.651 46L91.9486 21.6214H101.214L106.516 35.4458L112.115 21.6214H120.787L109.886 46H102.651ZM134.973 46.5451C132 46.5451 129.423 46.033 127.243 45.009C125.096 43.9519 123.444 42.4654 122.288 40.5495C121.132 38.6336 120.554 36.3708 120.554 33.7611C120.554 31.2836 121.099 29.0869 122.189 27.171C123.312 25.2551 124.832 23.7686 126.747 22.7115C128.696 21.6214 130.91 21.0763 133.387 21.0763C135.832 21.0763 137.946 21.5884 139.73 22.6124C141.546 23.6364 142.934 25.1064 143.892 27.0223C144.883 28.9052 145.378 31.1185 145.378 33.662V35.5945H128.977C129.274 37.1801 129.935 38.3198 130.959 39.0134C131.983 39.7071 133.404 40.054 135.22 40.054C136.476 40.054 137.781 39.8723 139.135 39.5089C140.522 39.1125 141.745 38.551 142.802 37.8242L144.982 43.6216C143.727 44.5135 142.191 45.2237 140.374 45.7522C138.557 46.2808 136.757 46.5451 134.973 46.5451ZM133.784 26.7746C132.462 26.7746 131.372 27.171 130.513 27.9638C129.687 28.7566 129.159 29.9128 128.928 31.4323H138.144C138.045 29.8797 137.615 28.7236 136.856 27.9638C136.129 27.171 135.105 26.7746 133.784 26.7746ZM149.178 46V21.6214H157.75V24.9412C158.609 23.686 159.716 22.728 161.07 22.0673C162.424 21.4067 163.944 21.0763 165.629 21.0763C168.536 21.0763 170.683 21.9352 172.07 23.6529C173.491 25.3707 174.201 28.0133 174.201 31.5809V46H165.381V31.9278C165.381 30.4413 165.117 29.3842 164.588 28.7566C164.093 28.129 163.349 27.8151 162.358 27.8151C161.037 27.8151 159.98 28.2446 159.187 29.1034C158.394 29.9293 157.998 31.0524 157.998 32.4729V46H149.178ZM178.98 17.4096V9.4321H188.246V17.4096H178.98ZM179.227 46V21.6214H188.047V46H179.227ZM206.443 46.5451C203.47 46.5451 200.893 46.033 198.713 45.009C196.566 43.9519 194.914 42.4654 193.758 40.5495C192.602 38.6336 192.024 36.3708 192.024 33.7611C192.024 31.2836 192.569 29.0869 193.659 27.171C194.782 25.2551 196.302 23.7686 198.218 22.7115C200.166 21.6214 202.38 21.0763 204.857 21.0763C207.302 21.0763 209.416 21.5884 211.2 22.6124C213.016 23.6364 214.404 25.1064 215.362 27.0223C216.353 28.9052 216.848 31.1185 216.848 33.662V35.5945H200.447C200.745 37.1801 201.405 38.3198 202.429 39.0134C203.453 39.7071 204.874 40.054 206.691 40.054C207.946 40.054 209.251 39.8723 210.605 39.5089C211.992 39.1125 213.215 38.551 214.272 37.8242L216.452 43.6216C215.197 44.5135 213.661 45.2237 211.844 45.7522C210.027 46.2808 208.227 46.5451 206.443 46.5451ZM205.254 26.7746C203.932 26.7746 202.842 27.171 201.983 27.9638C201.157 28.7566 200.629 29.9128 200.398 31.4323H209.614C209.515 29.8797 209.085 28.7236 208.326 27.9638C207.599 27.171 206.575 26.7746 205.254 26.7746ZM220.648 46V21.6214H229.22V24.9412C230.079 23.686 231.186 22.728 232.54 22.0673C233.895 21.4067 235.414 21.0763 237.099 21.0763C240.006 21.0763 242.153 21.9352 243.54 23.6529C244.961 25.3707 245.671 28.0133 245.671 31.5809V46H236.851V31.9278C236.851 30.4413 236.587 29.3842 236.058 28.7566C235.563 28.129 234.819 27.8151 233.828 27.8151C232.507 27.8151 231.45 28.2446 230.657 29.1034C229.864 29.9293 229.468 31.0524 229.468 32.4729V46H220.648ZM263.481 46.5451C259.782 46.5451 257.04 45.6862 255.256 43.9684C253.472 42.2507 252.58 39.6576 252.58 36.1891V28.1124H248.022V21.6214H252.58V14.5357H261.4V21.6214H268.337V28.1124H261.4V35.8918C261.4 38.2702 262.606 39.4594 265.017 39.4594C265.414 39.4594 265.843 39.4264 266.306 39.3603C266.801 39.2612 267.346 39.1291 267.941 38.9639L269.13 45.3063C268.37 45.7027 267.478 46 266.454 46.1982C265.43 46.4294 264.439 46.5451 263.481 46.5451ZM5.0631 113.919L9.96855 103.315L0.00899995 80.6214H9.27485L14.6263 94.4458L20.1759 80.6214H28.8967L13.9821 113.919H5.0631ZM42.0928 105.545C39.3841 105.545 37.0222 105.033 35.0072 104.009C32.9921 102.985 31.4231 101.515 30.2999 99.599C29.1768 97.6831 28.6152 95.4203 28.6152 92.8107C28.6152 90.168 29.1768 87.9052 30.2999 86.0223C31.4231 84.1064 32.9921 82.6364 35.0072 81.6124C37.0222 80.5884 39.3841 80.0763 42.0928 80.0763C44.8016 80.0763 47.1634 80.5884 49.1785 81.6124C51.1935 82.6364 52.7461 84.1064 53.8362 86.0223C54.9593 87.9052 55.5209 90.168 55.5209 92.8107C55.5209 95.4203 54.9593 97.6831 53.8362 99.599C52.7461 101.515 51.1935 102.985 49.1785 104.009C47.1634 105.033 44.8016 105.545 42.0928 105.545ZM42.0928 99.054C43.4142 99.054 44.5043 98.5585 45.3631 97.5675C46.222 96.5765 46.6514 94.9909 46.6514 92.8107C46.6514 90.5975 46.222 89.0119 45.3631 88.0539C44.5043 87.0629 43.4142 86.5674 42.0928 86.5674C40.7385 86.5674 39.6318 87.0629 38.773 88.0539C37.9141 89.0119 37.4847 90.5975 37.4847 92.8107C37.4847 94.9909 37.9141 96.5765 38.773 97.5675C39.6318 98.5585 40.7385 99.054 42.0928 99.054ZM68.6795 105.545C65.5083 105.545 63.1629 104.686 61.6434 102.968C60.1569 101.218 59.4136 98.5585 59.4136 94.9909V80.6214H68.2335V95.2386C68.2335 97.617 69.2576 98.8063 71.3056 98.8063C72.4948 98.8063 73.4693 98.3768 74.2291 97.5179C74.9889 96.6591 75.3687 95.5194 75.3687 94.099V80.6214H84.1886V105H75.5669V101.977C73.9813 104.356 71.6855 105.545 68.6795 105.545ZM115.936 105.545C113.194 105.545 110.8 105.033 108.752 104.009C106.736 102.985 105.167 101.515 104.044 99.599C102.921 97.6831 102.36 95.4038 102.36 92.7611C102.36 90.1185 102.921 87.8557 104.044 85.9728C105.167 84.0569 106.736 82.6034 108.752 81.6124C110.8 80.5884 113.194 80.0763 115.936 80.0763C117.555 80.0763 119.157 80.3076 120.743 80.77C122.361 81.1995 123.683 81.8106 124.707 82.6034L122.378 88.6485C121.618 88.0539 120.726 87.5914 119.702 87.2611C118.711 86.8977 117.77 86.716 116.878 86.716C115.127 86.716 113.773 87.2446 112.815 88.3016C111.857 89.3587 111.378 90.8452 111.378 92.7611C111.378 94.7101 111.857 96.2296 112.815 97.3198C113.773 98.3768 115.127 98.9053 116.878 98.9053C117.77 98.9053 118.711 98.7402 119.702 98.4099C120.726 98.0465 121.618 97.5675 122.378 96.9729L124.707 103.018C123.683 103.811 122.361 104.438 120.743 104.901C119.124 105.33 117.522 105.545 115.936 105.545ZM135.925 105.545C134.042 105.545 132.374 105.198 130.92 104.504C129.5 103.811 128.377 102.869 127.551 101.68C126.758 100.458 126.362 99.0705 126.362 97.5179C126.362 95.7672 126.824 94.3798 127.749 93.3557C128.674 92.2987 130.16 91.5554 132.208 91.126C134.256 90.6635 136.982 90.4323 140.384 90.4323H142.267V89.7386C142.267 88.5494 141.953 87.707 141.326 87.2115C140.731 86.716 139.69 86.4683 138.204 86.4683C136.949 86.4683 135.561 86.6665 134.042 87.0629C132.522 87.4593 131.036 88.0704 129.582 88.8962L127.352 83.0989C128.178 82.5043 129.235 81.9758 130.524 81.5133C131.812 81.0508 133.166 80.704 134.587 80.4727C136.007 80.2085 137.345 80.0763 138.6 80.0763C142.663 80.0763 145.669 80.9517 147.618 82.7025C149.6 84.4533 150.591 87.2115 150.591 90.9773V105H142.366V101.532C141.937 102.787 141.16 103.778 140.037 104.504C138.914 105.198 137.543 105.545 135.925 105.545ZM137.907 99.7972C139.129 99.7972 140.153 99.4008 140.979 98.608C141.838 97.8152 142.267 96.7747 142.267 95.4864V94.5945H140.384C138.435 94.5945 136.998 94.8092 136.073 95.2386C135.181 95.635 134.735 96.2792 134.735 97.1711C134.735 97.9309 135 98.5585 135.528 99.054C136.09 99.5495 136.883 99.7972 137.907 99.7972ZM155.614 105V80.6214H164.186V83.9412C165.045 82.686 166.151 81.728 167.506 81.0673C168.86 80.4067 170.38 80.0763 172.064 80.0763C174.971 80.0763 177.119 80.9352 178.506 82.6529C179.926 84.3707 180.637 87.0133 180.637 90.5809V105H171.817V90.9278C171.817 89.4413 171.552 88.3842 171.024 87.7566C170.528 87.129 169.785 86.8151 168.794 86.8151C167.473 86.8151 166.416 87.2446 165.623 88.1034C164.83 88.9293 164.434 90.0524 164.434 91.4729V105H155.614ZM212.625 105.545C208.925 105.545 206.183 104.686 204.4 102.968C202.616 101.251 201.724 98.6576 201.724 95.1891V87.1124H197.165V80.6214H201.724V73.5357H210.544V80.6214H217.481V87.1124H210.544V94.8918C210.544 97.2702 211.75 98.4594 214.161 98.4594C214.557 98.4594 214.987 98.4264 215.449 98.3603C215.945 98.2612 216.49 98.1291 217.084 97.9639L218.274 104.306C217.514 104.703 216.622 105 215.598 105.198C214.574 105.429 213.583 105.545 212.625 105.545ZM220.939 105V80.6214H229.511V84.734C230.634 81.9262 233.062 80.3902 236.795 80.1259L239.222 79.9277L239.718 87.3602L234.912 87.8062C233.161 87.9713 231.889 88.4668 231.096 89.2927C230.303 90.0854 229.907 91.2746 229.907 92.8602V105H220.939ZM251.54 105.545C248.369 105.545 246.024 104.686 244.504 102.968C243.018 101.218 242.274 98.5585 242.274 94.9909V80.6214H251.094V95.2386C251.094 97.617 252.118 98.8063 254.166 98.8063C255.356 98.8063 256.33 98.3768 257.09 97.5179C257.85 96.6591 258.23 95.5194 258.23 94.099V80.6214H267.049V105H258.428V101.977C256.842 104.356 254.546 105.545 251.54 105.545ZM281.894 105.545C279.648 105.545 277.567 105.314 275.651 104.851C273.768 104.389 272.166 103.745 270.844 102.919L272.876 97.2206C274.098 97.9143 275.518 98.4924 277.137 98.9549C278.756 99.3843 280.358 99.599 281.943 99.599C283.166 99.599 284.041 99.4339 284.57 99.1035C285.098 98.7402 285.362 98.2777 285.362 97.7162C285.362 97.2207 285.181 96.8573 284.817 96.626C284.487 96.3618 284.008 96.1636 283.38 96.0314L277.88 95.1395C275.832 94.8092 274.247 94.066 273.124 92.9098C272 91.7536 271.439 90.2506 271.439 88.4007C271.439 86.683 271.918 85.213 272.876 83.9908C273.834 82.7355 275.172 81.7776 276.889 81.1169C278.607 80.4232 280.573 80.0763 282.786 80.0763C284.537 80.0763 286.271 80.2911 287.989 80.7205C289.706 81.1169 291.209 81.7776 292.498 82.7025L290.317 88.3016C289.359 87.641 288.17 87.0959 286.75 86.6665C285.329 86.204 284.058 85.9728 282.934 85.9728C281.58 85.9728 280.622 86.171 280.061 86.5674C279.499 86.9308 279.218 87.3767 279.218 87.9052C279.218 88.7971 279.829 89.3422 281.052 89.5404L286.552 90.4818C288.666 90.8122 290.284 91.5389 291.408 92.662C292.564 93.7521 293.142 95.2386 293.142 97.1215C293.142 99.7972 292.118 101.878 290.07 103.365C288.022 104.818 285.296 105.545 281.894 105.545ZM309.306 105.545C305.606 105.545 302.864 104.686 301.08 102.968C299.296 101.251 298.405 98.6576 298.405 95.1891V87.1124H293.846V80.6214H298.405V73.5357H307.224V80.6214H314.161V87.1124H307.224V94.8918C307.224 97.2702 308.43 98.4594 310.842 98.4594C311.238 98.4594 311.667 98.4264 312.13 98.3603C312.625 98.2612 313.17 98.1291 313.765 97.9639L314.954 104.306C314.194 104.703 313.303 105 312.279 105.198C311.254 105.429 310.263 105.545 309.306 105.545Z" fill="white"/>
<path d="M302.027 46.5451C300.408 46.5451 298.922 46.1982 297.568 45.5045C296.213 44.7778 295.206 43.8363 294.545 42.6801V46H285.973V11.0672H294.793V24.5448C295.486 23.4878 296.477 22.6454 297.766 22.0178C299.087 21.3902 300.508 21.0763 302.027 21.0763C304.141 21.0763 305.991 21.5884 307.577 22.6124C309.195 23.6364 310.451 25.1064 311.342 27.0223C312.234 28.9052 312.68 31.168 312.68 33.8107C312.68 36.4203 312.218 38.6831 311.293 40.599C310.401 42.515 309.146 43.985 307.527 45.009C305.942 46.033 304.108 46.5451 302.027 46.5451ZM299.252 40.054C300.574 40.054 301.664 39.5585 302.523 38.5675C303.381 37.5765 303.811 35.9909 303.811 33.8107C303.811 31.5975 303.381 30.0119 302.523 29.0539C301.664 28.0629 300.574 27.5674 299.252 27.5674C297.898 27.5674 296.791 28.0629 295.932 29.0539C295.074 30.0119 294.644 31.5975 294.644 33.8107C294.644 35.9909 295.074 37.5765 295.932 38.5675C296.791 39.5585 297.898 40.054 299.252 40.054ZM325.173 46.5451C323.29 46.5451 321.622 46.1982 320.168 45.5045C318.748 44.8108 317.625 43.8693 316.799 42.6801C316.006 41.4579 315.61 40.0705 315.61 38.5179C315.61 36.7672 316.072 35.3798 316.997 34.3557C317.922 33.2987 319.408 32.5554 321.456 32.126C323.505 31.6635 326.23 31.4323 329.632 31.4323H331.515V30.7386C331.515 29.5494 331.201 28.707 330.574 28.2115C329.979 27.716 328.939 27.4683 327.452 27.4683C326.197 27.4683 324.809 27.6665 323.29 28.0629C321.77 28.4593 320.284 29.0704 318.83 29.8962L316.601 24.0989C317.426 23.5043 318.483 22.9758 319.772 22.5133C321.06 22.0508 322.414 21.704 323.835 21.4727C325.255 21.2085 326.593 21.0763 327.848 21.0763C331.912 21.0763 334.918 21.9517 336.867 23.7025C338.849 25.4533 339.84 28.2115 339.84 31.9773V46H331.614V42.5315C331.185 43.7868 330.409 44.7778 329.285 45.5045C328.162 46.1982 326.791 46.5451 325.173 46.5451ZM327.155 40.7972C328.377 40.7972 329.401 40.4008 330.227 39.608C331.086 38.8152 331.515 37.7747 331.515 36.4864V35.5945H329.632C327.683 35.5945 326.246 35.8092 325.321 36.2386C324.429 36.635 323.984 37.2792 323.984 38.1711C323.984 38.9309 324.248 39.5585 324.776 40.054C325.338 40.5495 326.131 40.7972 327.155 40.7972ZM344.862 46V21.6214H353.434V24.9412C354.293 23.686 355.4 22.728 356.754 22.0673C358.108 21.4067 359.628 21.0763 361.312 21.0763C364.219 21.0763 366.367 21.9352 367.754 23.6529C369.174 25.3707 369.885 28.0133 369.885 31.5809V46H361.065V31.9278C361.065 30.4413 360.8 29.3842 360.272 28.7566C359.776 28.129 359.033 27.8151 358.042 27.8151C356.721 27.8151 355.664 28.2446 354.871 29.1034C354.078 29.9293 353.682 31.0524 353.682 32.4729V46H344.862ZM374.911 46V11.0672H383.731V31.4323H383.83L391.857 21.6214H402.213L392.551 33.2161L402.56 46H392.006L383.83 35.8422H383.731V46H374.911ZM403.406 17.4096V9.4321H412.672V17.4096H403.406ZM403.654 46V21.6214H412.474V46H403.654ZM417.59 46V21.6214H426.162V24.9412C427.021 23.686 428.128 22.728 429.482 22.0673C430.836 21.4067 432.356 21.0763 434.041 21.0763C436.948 21.0763 439.095 21.9352 440.482 23.6529C441.903 25.3707 442.613 28.0133 442.613 31.5809V46H433.793V31.9278C433.793 30.4413 433.529 29.3842 433 28.7566C432.505 28.129 431.761 27.8151 430.77 27.8151C429.449 27.8151 428.392 28.2446 427.599 29.1034C426.806 29.9293 426.41 31.0524 426.41 32.4729V46H417.59ZM459.73 55.4641C457.285 55.4641 454.989 55.2328 452.842 54.7703C450.728 54.3079 448.911 53.5481 447.392 52.4911L449.671 46.5451C450.926 47.3048 452.413 47.8994 454.13 48.3289C455.881 48.7583 457.467 48.973 458.887 48.973C460.902 48.973 462.405 48.5436 463.396 47.6847C464.42 46.8589 464.932 45.554 464.932 43.7702V41.4909C464.239 42.6801 463.198 43.6216 461.811 44.3153C460.423 45.009 458.937 45.3558 457.351 45.3558C455.171 45.3558 453.272 44.8603 451.653 43.8693C450.034 42.8453 448.763 41.4249 447.838 39.608C446.946 37.7912 446.5 35.6606 446.5 33.2161C446.5 30.7716 446.946 28.641 447.838 26.8241C448.763 25.0073 450.034 23.6034 451.653 22.6124C453.272 21.5884 455.171 21.0763 457.351 21.0763C459.003 21.0763 460.506 21.4397 461.86 22.1664C463.248 22.8601 464.255 23.7851 464.883 24.9412V21.6214H473.505V42.7297C473.505 46.991 472.315 50.1787 469.937 52.2929C467.559 54.407 464.156 55.4641 459.73 55.4641ZM460.076 38.8648C461.53 38.8648 462.686 38.3693 463.545 37.3783C464.404 36.3873 464.833 34.9999 464.833 33.2161C464.833 31.4323 464.404 30.0449 463.545 29.0539C462.686 28.0629 461.53 27.5674 460.076 27.5674C458.656 27.5674 457.516 28.0629 456.658 29.0539C455.799 30.0449 455.369 31.4323 455.369 33.2161C455.369 34.9999 455.799 36.3873 456.658 37.3783C457.516 38.3693 458.656 38.8648 460.076 38.8648Z" fill="#2D54E5"/>
</svg>
