<svg width="106" height="29" viewBox="0 0 106 29" fill="none" xmlns="http://www.w3.org/2000/svg">
<path d="M42.052 23.9736V7.26407H46.4131V14.4219H46.4605L52.9547 7.26407H58.1216L50.6794 15.2041L58.3824 23.9736H53.1917L46.4605 16.4366H46.4131V23.9736H42.052Z" fill="#0F1C4D"/>
<path d="M62.694 24.2344C61.7933 24.2344 60.9954 24.0684 60.3001 23.7366C59.6207 23.4048 59.0835 22.9545 58.6884 22.3856C58.3092 21.801 58.1196 21.1374 58.1196 20.3947C58.1196 19.5573 58.3408 18.8936 58.7832 18.4038C59.2257 17.8981 59.9367 17.5426 60.9164 17.3372C61.896 17.116 63.1996 17.0054 64.8271 17.0054H65.7278V16.6736C65.7278 16.1047 65.5777 15.7018 65.2775 15.4648C64.993 15.2278 64.4953 15.1093 63.7843 15.1093C63.1838 15.1093 62.5202 15.2041 61.7933 15.3937C61.0665 15.5833 60.3554 15.8756 59.6602 16.2706L58.5936 13.4976C58.9887 13.2131 59.4943 12.9603 60.1105 12.7391C60.7268 12.5179 61.3746 12.352 62.0541 12.2414C62.7335 12.115 63.3734 12.0518 63.9739 12.0518C65.9174 12.0518 67.3553 12.4705 68.2876 13.308C69.2356 14.1454 69.7096 15.4648 69.7096 17.2661V23.9736H65.7752V22.3145C65.5698 22.915 65.1985 23.389 64.6612 23.7366C64.124 24.0684 63.4682 24.2344 62.694 24.2344ZM63.6421 21.485C64.2267 21.485 64.7165 21.2954 65.1115 20.9161C65.5224 20.5369 65.7278 20.0392 65.7278 19.4229V18.9963H64.8271C63.8949 18.9963 63.2075 19.099 62.7651 19.3044C62.3385 19.4941 62.1252 19.8022 62.1252 20.2288C62.1252 20.5922 62.2516 20.8924 62.5044 21.1295C62.773 21.3665 63.1522 21.485 63.6421 21.485Z" fill="#0F1C4D"/>
<path d="M71.875 23.9736V21.2717L77.0656 15.4174H71.875V12.3125H81.64V14.9908L76.4494 20.8687H81.9007V23.9736H71.875Z" fill="#0F1C4D"/>
<path d="M87.5991 24.2344C86.6985 24.2344 85.9005 24.0684 85.2053 23.7366C84.5258 23.4048 83.9886 22.9545 83.5936 22.3856C83.2143 21.801 83.0247 21.1374 83.0247 20.3947C83.0247 19.5573 83.2459 18.8936 83.6884 18.4038C84.1308 17.8981 84.8418 17.5426 85.8215 17.3372C86.8012 17.116 88.1047 17.0054 89.7322 17.0054H90.6329V16.6736C90.6329 16.1047 90.4828 15.7018 90.1826 15.4648C89.8982 15.2278 89.4004 15.1093 88.6894 15.1093C88.0889 15.1093 87.4253 15.2041 86.6985 15.3937C85.9716 15.5833 85.2606 15.8756 84.5653 16.2706L83.4987 13.4976C83.8938 13.2131 84.3994 12.9603 85.0156 12.7391C85.6319 12.5179 86.2797 12.352 86.9592 12.2414C87.6386 12.115 88.2785 12.0518 88.879 12.0518C90.8225 12.0518 92.2604 12.4705 93.1927 13.308C94.1407 14.1454 94.6148 15.4648 94.6148 17.2661V23.9736H90.6803V22.3145C90.4749 22.915 90.1036 23.389 89.5663 23.7366C89.0291 24.0684 88.3734 24.2344 87.5991 24.2344ZM88.5472 21.485C89.1318 21.485 89.6216 21.2954 90.0167 20.9161C90.4275 20.5369 90.6329 20.0392 90.6329 19.4229V18.9963H89.7322C88.8 18.9963 88.1126 19.099 87.6702 19.3044C87.2436 19.4941 87.0303 19.8022 87.0303 20.2288C87.0303 20.5922 87.1567 20.8924 87.4095 21.1295C87.6781 21.3665 88.0573 21.485 88.5472 21.485Z" fill="#0F1C4D"/>
<path d="M97.0171 23.9736V12.3125H101.117V14.2797C101.655 12.9366 102.816 12.2019 104.602 12.0755L105.763 11.9807L106 15.5359L103.701 15.7492C102.864 15.8282 102.255 16.0652 101.876 16.4603C101.497 16.8395 101.307 17.4083 101.307 18.1668V23.9736H97.0171Z" fill="#0F1C4D"/>
<path d="M6.46619 18.4297C5.22507 17.1886 5.22507 15.1763 6.46619 13.9352L19.4706 0.930837C20.7117 -0.310279 22.7239 -0.310279 23.965 0.930837L33.0411 10.0069C34.2822 11.248 34.2822 13.2603 33.0411 14.5014L20.0367 27.5058C18.7956 28.7469 16.7834 28.7469 15.5422 27.5058L6.46619 18.4297Z" fill="#2D54E5"/>
<path d="M0.930837 18.6082C-0.310279 17.3671 -0.310279 15.3549 0.930837 14.1138L13.9352 1.1094C15.1763 -0.131719 17.1886 -0.131719 18.4297 1.1094L27.5058 10.1855C28.7469 11.4266 28.7469 13.4388 27.5058 14.6799L14.5014 27.6843C13.2603 28.9254 11.248 28.9254 10.0069 27.6843L0.930837 18.6082Z" fill="#0F1C4D"/>
<path d="M13.7133 7.10659C13.1047 6.49795 13.1047 5.51115 13.7133 4.9025L15.0358 3.58005C15.6444 2.97141 16.6312 2.97141 17.2398 3.58005L17.6807 4.02087C18.2893 4.62951 18.2893 5.61631 17.6807 6.22496L16.3582 7.54741C15.7496 8.15605 14.7628 8.15605 14.1541 7.54741L13.7133 7.10659Z" fill="white"/>
</svg>
