<svg width="16" height="16" viewBox="0 0 16 16" fill="none" xmlns="http://www.w3.org/2000/svg">
<path d="M14.6666 10.7933C14.6666 13.22 13.2199 14.6666 10.7933 14.6666H9.99992C9.63325 14.6666 9.33325 14.3666 9.33325 14V10.1533C9.33325 9.97331 9.47992 9.81998 9.65992 9.81998L10.8333 9.79998C10.9266 9.79331 11.0066 9.72665 11.0266 9.63331L11.2599 8.35998C11.2644 8.33112 11.2627 8.30162 11.2547 8.27351C11.2467 8.24541 11.2327 8.21937 11.2137 8.19719C11.1947 8.175 11.1711 8.15721 11.1446 8.14503C11.118 8.13285 11.0891 8.12658 11.0599 8.12665L9.63992 8.14665C9.45325 8.14665 9.30658 7.99998 9.29992 7.81998L9.27325 6.18665C9.27325 6.07998 9.35992 5.98665 9.47325 5.98665L11.0733 5.95998C11.1866 5.95998 11.2733 5.87331 11.2733 5.75998L11.2466 4.15998C11.2466 4.04665 11.1599 3.95998 11.0466 3.95998L9.24658 3.98665C8.98383 3.99064 8.72444 4.04644 8.48328 4.15086C8.24213 4.25528 8.02395 4.40626 7.84126 4.59515C7.65856 4.78404 7.51493 5.00713 7.41861 5.25163C7.32228 5.49613 7.27515 5.75723 7.27992 6.01998L7.31325 7.85331C7.31992 8.03998 7.17325 8.18665 6.98658 8.19331L6.18658 8.20665C6.07325 8.20665 5.98658 8.29331 5.98658 8.40665L6.00659 9.67331C6.00659 9.78665 6.09325 9.87331 6.20659 9.87331L7.00659 9.85998C7.19325 9.85998 7.33992 10.0066 7.34659 10.1866L7.40658 13.9866C7.41325 14.36 7.11325 14.6666 6.73992 14.6666H5.20658C2.77992 14.6666 1.33325 13.22 1.33325 10.7866V5.20665C1.33325 2.77998 2.77992 1.33331 5.20658 1.33331H10.7933C13.2199 1.33331 14.6666 2.77998 14.6666 5.20665V10.7933Z" fill="#596180"/>
</svg>
