<svg width="16" height="16" viewBox="0 0 16 16" fill="none" xmlns="http://www.w3.org/2000/svg">
<path d="M14.6534 7.60664C14.4268 3.73997 10.9134 0.759974 6.86678 1.42664C4.08012 1.88664 1.84678 4.14664 1.41345 6.93331C1.16012 8.54664 1.49345 10.0733 2.22012 11.3333L1.62678 13.54C1.49345 14.04 1.95345 14.4933 2.44678 14.3533L4.62012 13.7533C5.60678 14.3333 6.76012 14.6666 7.99345 14.6666C11.7534 14.6666 14.8734 11.3533 14.6534 7.60664ZM11.2534 10.48C11.0927 10.8098 10.818 11.0703 10.4801 11.2133C10.2801 11.3 10.0601 11.34 9.82678 11.34C9.48678 11.34 9.12012 11.26 8.74012 11.0933C8.33512 10.9155 7.95064 10.6942 7.59345 10.4333C7.20678 10.1533 6.84678 9.83997 6.50012 9.49998C6.15345 9.15331 5.84678 8.78664 5.56678 8.40664C5.29345 8.02664 5.07345 7.64664 4.91345 7.26664C4.75345 6.88664 4.67345 6.51997 4.67345 6.17331C4.67345 5.94664 4.71345 5.72664 4.79345 5.52664C4.87345 5.31997 5.00012 5.13331 5.18012 4.96664C5.39345 4.75331 5.62678 4.65331 5.87345 4.65331C5.96678 4.65331 6.06012 4.67331 6.14678 4.71331C6.23345 4.75331 6.31345 4.81331 6.37345 4.89997L7.14678 5.99331C7.20678 6.07997 7.25345 6.15331 7.28012 6.22664C7.31345 6.29997 7.32678 6.36664 7.32678 6.43331C7.32678 6.51331 7.30012 6.59331 7.25345 6.67331C7.20678 6.75331 7.14678 6.83331 7.06678 6.91331L6.81345 7.17998C6.77345 7.21997 6.76012 7.25997 6.76012 7.31331C6.76012 7.33997 6.76678 7.36664 6.77345 7.39331C6.78678 7.41997 6.79345 7.43997 6.80012 7.45997C6.86012 7.57331 6.96678 7.71331 7.11345 7.88664C7.42557 8.25342 7.76667 8.59452 8.13345 8.90664C8.30678 9.05331 8.45345 9.15331 8.56678 9.21331C8.58678 9.21997 8.60678 9.23331 8.62678 9.23997C8.65345 9.25331 8.68012 9.25331 8.71345 9.25331C8.77345 9.25331 8.81345 9.23331 8.85345 9.19331L9.10678 8.93997C9.19345 8.85331 9.27345 8.79331 9.34678 8.75331C9.42678 8.70664 9.50012 8.67998 9.58678 8.67998C9.65345 8.67998 9.72012 8.69331 9.79345 8.72664C9.86678 8.75997 9.94678 8.79997 10.0268 8.85997L11.1334 9.64664C11.2201 9.70664 11.2801 9.77997 11.3201 9.85997C11.3534 9.94664 11.3734 10.0266 11.3734 10.12C11.3334 10.2333 11.3068 10.36 11.2534 10.48Z" fill="#596180"/>
</svg>
